<svg width="40" height="39" viewBox="0 0 40 39" fill="none" xmlns="http://www.w3.org/2000/svg">
<g id="Group 257">
<g id="Group 238">
<path id="Rectangle 337" d="M40 19.4605C40 8.71278 31.2872 0 20.5395 0H19.4605C8.71277 0 0 8.71278 0 19.4605C0 30.2083 8.71277 38.921 19.4605 38.921H20.5395C31.2872 38.921 40 30.2083 40 19.4605Z" fill="#FFD369"/>
</g>
<path id="Subtract" fill-rule="evenodd" clip-rule="evenodd" d="M30.7273 10.6277C31.5128 10.6277 32.2103 10.9843 32.6492 11.5358L19.902 21.6594L7.26833 11.7196C7.69074 11.0648 8.45261 10.6277 9.32229 10.6277H30.7273ZM6.91724 27.4802V13.516L15.9822 20.6481L6.93592 27.7655C6.92359 27.6721 6.91724 27.5768 6.91724 27.4802ZM7.74629 29.2006C8.16837 29.5476 8.71943 29.7576 9.32229 29.7576H30.7273C31.2454 29.7576 31.7253 29.6024 32.1179 29.3385L22.4853 21.6884L20.7531 23.0641C20.2632 23.4532 19.5495 23.4548 19.0577 23.0678L17.2994 21.6844L7.74629 29.2006ZM23.7953 20.6481L33.0666 28.0113C33.1096 27.8409 33.1323 27.6631 33.1323 27.4802V13.2328L23.7953 20.6481Z" fill="#0F3D3E"/>
</g>
</svg>
