<svg width="40" height="40" viewBox="0 0 40 40" fill="none" xmlns="http://www.w3.org/2000/svg">
<g id="Group 244">
<g id="Group 238">
<path id="Rectangle 337" d="M40 20C40 8.9543 31.0457 0 20 0C8.95431 0 0 8.9543 0 20C0 31.0457 8.95431 40 20 40C31.0457 40 40 31.0457 40 20Z" fill="#FFD369"/>
<g id="Group 235">
<path id="Rectangle 348" d="M9.64287 17.4049C10.7825 16.8677 12.143 17.4258 12.6305 18.5646C14.3228 22.5175 16.29 24.7114 19.904 26.689C21.1019 27.3445 21.547 28.8433 20.7819 29.9476C20.1549 30.8527 18.9226 31.1702 17.9638 30.5949C13.1064 27.6807 10.2592 23.5484 8.63884 19.9048C8.21305 18.9473 8.67925 17.8591 9.64287 17.4049Z" fill="#0F3D3E"/>
<path id="Rectangle 349" d="M13.6646 7.72888C14.8618 7.72407 15.772 8.74786 15.6904 9.90714C15.562 11.7315 15.6987 13.0477 16.0669 14.6792C16.2691 15.5754 15.8116 16.4856 15.0846 17.0718C14.1046 17.862 13.3559 18.8689 12.7609 19.7357C11.9362 20.937 9.09793 20.8507 8.47025 19.5419C7.18028 16.8522 6.30607 11.8968 8.1898 8.54886C8.48569 8.02298 9.08146 7.7473 9.6988 7.74482L13.6646 7.72888Z" fill="#0F3D3E"/>
<path id="Rectangle 350" d="M31.8379 27.6326C31.9868 26.4797 31.0491 25.4795 29.8535 25.4187C27.9721 25.323 26.6423 25.033 25.0179 24.4821C24.1255 24.1794 23.1395 24.5108 22.4525 25.1408C21.5264 25.99 20.4065 26.5903 19.4484 27.0594C18.1204 27.7096 17.8674 30.4548 19.1305 31.217C21.7265 32.7834 26.6899 34.2216 30.3408 32.8092C30.9143 32.5874 31.2679 32.0465 31.3447 31.4519L31.8379 27.6326Z" fill="#0F3D3E"/>
</g>
</g>
</g>
</svg>
